
<svg xmlns="http://www.w3.org/2000/svg" viewBox="0 11.579999923706055 371.70001220703125 47.65000534057617" data-asc="0.96875" width="371.70001220703125" height="47.65000534057617"><defs/><g fill="#000000"><g transform="translate(0, 0)"><path d="M21.27 21.63Q20.99 19.11 18.93 17.71Q16.87 16.32 13.74 16.32Q11.51 16.32 9.87 17.02Q8.24 17.72 7.34 18.94Q6.45 20.15 6.45 21.70Q6.45 22.99 7.06 23.93Q7.67 24.88 8.67 25.51Q9.68 26.14 10.83 26.55Q11.99 26.97 13.05 27.24L16.60 28.16Q18.34 28.59 20.17 29.31Q22.00 30.04 23.56 31.23Q25.12 32.42 26.09 34.18Q27.06 35.94 27.06 38.39Q27.06 41.48 25.47 43.87Q23.88 46.27 20.87 47.66Q17.86 49.04 13.60 49.04Q9.52 49.04 6.53 47.75Q3.55 46.45 1.86 44.06Q0.18 41.67 0 38.39L5.50 38.39Q5.66 40.36 6.79 41.66Q7.92 42.97 9.69 43.60Q11.45 44.23 13.57 44.23Q15.89 44.23 17.71 43.49Q19.53 42.76 20.58 41.43Q21.63 40.11 21.63 38.33Q21.63 36.72 20.71 35.69Q19.80 34.66 18.24 33.98Q16.69 33.31 14.74 32.79L10.44 31.62Q6.07 30.43 3.52 28.12Q0.98 25.82 0.98 22.02Q0.98 18.87 2.68 16.53Q4.39 14.19 7.30 12.88Q10.21 11.58 13.87 11.58Q17.56 11.58 20.39 12.87Q23.22 14.17 24.86 16.43Q26.49 18.70 26.56 21.63L21.27 21.63ZM45.92 21.16L45.92 25.43L31.02 25.43L31.02 21.16L45.92 21.16M35.01 14.63L40.32 14.63L40.32 40.43Q40.32 41.97 40.78 42.75Q41.25 43.52 41.98 43.79Q42.72 44.07 43.59 44.07Q44.23 44.07 44.71 43.98Q45.19 43.89 45.45 43.84L46.41 48.22Q45.95 48.40 45.10 48.59Q44.25 48.77 42.97 48.79Q40.87 48.83 39.06 48.05Q37.25 47.27 36.13 45.63Q35.01 44.00 35.01 41.53L35.01 14.63ZM51.78 48.44L51.78 21.16L56.91 21.16L56.91 25.50L57.19 25.50Q57.94 23.30 59.83 22.03Q61.72 20.76 64.12 20.76Q64.61 20.76 65.30 20.79Q65.98 20.83 66.37 20.88L66.37 25.96Q66.05 25.87 65.23 25.75Q64.42 25.64 63.60 25.64Q61.72 25.64 60.25 26.43Q58.79 27.22 57.94 28.61Q57.08 30.01 57.08 31.78L57.08 48.44L51.78 48.44ZM78.92 49.04Q76.33 49.04 74.24 48.07Q72.14 47.11 70.93 45.26Q69.71 43.41 69.71 40.73Q69.71 38.42 70.60 36.93Q71.48 35.44 72.99 34.57Q74.50 33.70 76.37 33.26Q78.23 32.81 80.17 32.58Q82.62 32.30 84.14 32.11Q85.67 31.92 86.36 31.50Q87.06 31.07 87.06 30.11L87.06 29.99Q87.06 27.66 85.75 26.38Q84.45 25.11 81.87 25.11Q79.19 25.11 77.65 26.29Q76.12 27.47 75.53 28.91L70.54 27.77Q71.43 25.28 73.14 23.75Q74.86 22.21 77.10 21.51Q79.33 20.81 81.80 20.81Q83.43 20.81 85.27 21.19Q87.11 21.57 88.72 22.59Q90.32 23.60 91.35 25.47Q92.38 27.34 92.38 30.33L92.38 48.44L87.20 48.44L87.20 44.71L86.99 44.71Q86.47 45.74 85.44 46.73Q84.41 47.73 82.79 48.38Q81.18 49.04 78.92 49.04M80.08 44.78Q82.28 44.78 83.85 43.91Q85.42 43.04 86.25 41.63Q87.07 40.22 87.07 38.60L87.07 35.09Q86.79 35.37 85.98 35.61Q85.17 35.85 84.14 36.02Q83.11 36.19 82.14 36.32Q81.16 36.45 80.50 36.54Q78.96 36.74 77.69 37.20Q76.42 37.66 75.67 38.52Q74.91 39.38 74.91 40.80Q74.91 42.77 76.37 43.78Q77.82 44.78 80.08 44.78ZM104.76 32.24L104.76 48.44L99.45 48.44L99.45 21.16L104.55 21.16L104.55 25.60L104.88 25.60Q105.82 23.44 107.84 22.12Q109.85 20.81 112.93 20.81Q115.71 20.81 117.81 21.97Q119.90 23.14 121.06 25.43Q122.21 27.72 122.21 31.09L122.21 48.44L116.90 48.44L116.90 31.73Q116.90 28.76 115.36 27.09Q113.81 25.41 111.12 25.41Q109.27 25.41 107.84 26.21Q106.41 27.01 105.58 28.54Q104.76 30.08 104.76 32.24ZM140.75 59.23Q137.50 59.23 135.17 58.38Q132.83 57.53 131.36 56.13Q129.88 54.72 129.15 53.05L133.72 51.17Q134.20 51.95 135.01 52.83Q135.81 53.71 137.21 54.33Q138.60 54.95 140.80 54.95Q143.82 54.95 145.79 53.49Q147.76 52.02 147.76 48.83L147.76 43.47L147.43 43.47Q146.95 44.34 146.05 45.40Q145.15 46.47 143.59 47.25Q142.03 48.03 139.52 48.03Q136.29 48.03 133.71 46.51Q131.13 44.99 129.63 42.02Q128.13 39.04 128.13 34.69Q128.13 30.34 129.61 27.24Q131.09 24.13 133.68 22.47Q136.27 20.81 139.56 20.81Q142.10 20.81 143.66 21.65Q145.22 22.50 146.10 23.62Q146.98 24.73 147.46 25.59L147.85 25.59L147.85 21.16L153.05 21.16L153.05 49.04Q153.05 52.56 151.42 54.81Q149.79 57.07 147.01 58.15Q144.23 59.23 140.75 59.23M140.70 43.63Q142.99 43.63 144.58 42.55Q146.16 41.48 146.99 39.46Q147.82 37.45 147.82 34.62Q147.82 31.87 147.00 29.78Q146.18 27.68 144.60 26.50Q143.02 25.32 140.70 25.32Q138.30 25.32 136.70 26.55Q135.10 27.79 134.30 29.90Q133.49 32.01 133.49 34.62Q133.49 37.30 134.30 39.33Q135.12 41.35 136.73 42.49Q138.33 43.63 140.70 43.63ZM171.93 48.99Q167.90 48.99 164.99 47.26Q162.09 45.53 160.52 42.37Q158.95 39.22 158.95 34.98Q158.95 30.79 160.52 27.59Q162.09 24.40 164.92 22.60Q167.76 20.81 171.56 20.81Q173.86 20.81 176.03 21.57Q178.20 22.34 179.92 23.97Q181.64 25.60 182.63 28.20Q183.63 30.81 183.63 34.52L183.63 36.40L161.95 36.40L161.95 32.42L178.43 32.42Q178.43 30.33 177.57 28.70Q176.72 27.08 175.19 26.14Q173.65 25.20 171.59 25.20Q169.35 25.20 167.69 26.29Q166.03 27.38 165.14 29.13Q164.24 30.88 164.24 32.92L164.24 36.03Q164.24 38.76 165.21 40.68Q166.18 42.60 167.92 43.60Q169.66 44.60 171.98 44.60Q173.49 44.60 174.73 44.17Q175.98 43.73 176.88 42.86Q177.79 41.99 178.27 40.71L183.29 41.62Q182.69 43.84 181.13 45.50Q179.58 47.16 177.25 48.07Q174.91 48.99 171.93 48.99ZM201.03 48.99Q197.19 48.99 194.34 47.23Q191.48 45.47 189.90 42.31Q188.32 39.15 188.32 34.93Q188.32 30.68 189.90 27.50Q191.48 24.33 194.34 22.57Q197.19 20.81 201.03 20.81Q204.87 20.81 207.72 22.57Q210.58 24.33 212.16 27.50Q213.74 30.68 213.74 34.93Q213.74 39.15 212.16 42.31Q210.58 45.47 207.72 47.23Q204.87 48.99 201.03 48.99M201.05 44.53Q203.53 44.53 205.17 43.22Q206.80 41.90 207.59 39.72Q208.38 37.54 208.38 34.91Q208.38 32.30 207.59 30.10Q206.80 27.91 205.17 26.58Q203.53 25.25 201.05 25.25Q198.54 25.25 196.90 26.58Q195.26 27.91 194.47 30.10Q193.68 32.30 193.68 34.91Q193.68 37.54 194.47 39.72Q195.26 41.90 196.90 43.22Q198.54 44.53 201.05 44.53ZM224.96 32.24L224.96 48.44L219.66 48.44L219.66 21.16L224.75 21.16L224.75 25.60L225.09 25.60Q226.03 23.44 228.05 22.12Q230.06 20.81 233.13 20.81Q235.92 20.81 238.01 21.97Q240.11 23.14 241.26 25.43Q242.42 27.72 242.42 31.09L242.42 48.44L237.11 48.44L237.11 31.73Q237.11 28.76 235.56 27.09Q234.02 25.41 231.32 25.41Q229.47 25.41 228.05 26.21Q226.62 27.01 225.79 28.54Q224.96 30.08 224.96 32.24ZM263.19 48.44L263.19 12.07L268.68 12.07L268.68 43.71L285.16 43.71L285.16 48.44L263.19 48.44ZM298.92 49.04Q296.32 49.04 294.23 48.07Q292.13 47.11 290.92 45.26Q289.70 43.41 289.70 40.73Q289.70 38.42 290.59 36.93Q291.48 35.44 292.99 34.57Q294.50 33.70 296.36 33.26Q298.22 32.81 300.16 32.58Q302.61 32.30 304.14 32.11Q305.66 31.92 306.36 31.50Q307.05 31.07 307.05 30.11L307.05 29.99Q307.05 27.66 305.74 26.38Q304.44 25.11 301.86 25.11Q299.18 25.11 297.65 26.29Q296.11 27.47 295.53 28.91L290.54 27.77Q291.42 25.28 293.14 23.75Q294.85 22.21 297.09 21.51Q299.33 20.81 301.79 20.81Q303.43 20.81 305.26 21.19Q307.10 21.57 308.71 22.59Q310.32 23.60 311.35 25.47Q312.38 27.34 312.38 30.33L312.38 48.44L307.19 48.44L307.19 44.71L306.98 44.71Q306.46 45.74 305.43 46.73Q304.40 47.73 302.79 48.38Q301.17 49.04 298.92 49.04M300.07 44.78Q302.27 44.78 303.84 43.91Q305.42 43.04 306.24 41.63Q307.07 40.22 307.07 38.60L307.07 35.09Q306.78 35.37 305.97 35.61Q305.17 35.85 304.14 36.02Q303.11 36.19 302.13 36.32Q301.15 36.45 300.50 36.54Q298.95 36.74 297.68 37.20Q296.41 37.66 295.66 38.52Q294.90 39.38 294.90 40.80Q294.90 42.77 296.36 43.78Q297.82 44.78 300.07 44.78ZM319.87 48.44L319.87 12.07L325.18 12.07L325.18 25.59L325.50 25.59Q325.96 24.73 326.83 23.62Q327.70 22.50 329.24 21.65Q330.79 20.81 333.33 20.81Q336.63 20.81 339.22 22.48Q341.81 24.15 343.30 27.29Q344.78 30.43 344.78 34.85Q344.78 39.28 343.31 42.43Q341.83 45.58 339.26 47.27Q336.68 48.97 333.38 48.97Q330.89 48.97 329.32 48.14Q327.75 47.30 326.86 46.18Q325.98 45.06 325.50 44.19L325.05 44.19L325.05 48.44L319.87 48.44M325.07 34.80Q325.07 37.68 325.91 39.84Q326.74 42.01 328.32 43.23Q329.90 44.44 332.19 44.44Q334.57 44.44 336.17 43.17Q337.77 41.90 338.59 39.72Q339.42 37.54 339.42 34.80Q339.42 32.10 338.61 29.95Q337.80 27.81 336.19 26.56Q334.59 25.32 332.19 25.32Q329.88 25.32 328.29 26.51Q326.70 27.70 325.89 29.83Q325.07 31.96 325.07 34.80ZM371.16 27.82L366.35 28.68Q366.05 27.75 365.40 26.92Q364.75 26.08 363.65 25.55Q362.55 25.02 360.90 25.02Q358.65 25.02 357.14 26.02Q355.63 27.02 355.63 28.60Q355.63 29.97 356.64 30.81Q357.65 31.64 359.91 32.17L364.24 33.17Q368.00 34.04 369.85 35.85Q371.70 37.66 371.70 40.55Q371.70 43.00 370.29 44.91Q368.87 46.82 366.36 47.90Q363.85 48.99 360.55 48.99Q355.97 48.99 353.07 47.03Q350.18 45.06 349.52 41.44L354.65 40.66Q355.13 42.67 356.62 43.69Q358.11 44.71 360.51 44.71Q363.12 44.71 364.68 43.62Q366.25 42.52 366.25 40.94Q366.25 39.67 365.30 38.80Q364.35 37.93 362.39 37.48L357.78 36.47Q353.96 35.60 352.14 33.70Q350.32 31.80 350.32 28.89Q350.32 26.47 351.67 24.66Q353.02 22.85 355.40 21.83Q357.78 20.81 360.85 20.81Q365.27 20.81 367.81 22.72Q370.35 24.63 371.16 27.82Z"/></g></g></svg>