
<svg xmlns="http://www.w3.org/2000/svg" viewBox="0 12.069999694824219 88.30000305175781 36.94010543823242" data-asc="0.96875" width="88.30000305175781" height="36.94010543823242"><defs/><g fill="#000000"><g transform="translate(0, 0)"><path d="M0 16.80L0 12.07L28.14 12.07L28.14 16.80L16.80 16.80L16.80 48.44L11.33 48.44L11.33 16.80L0 16.80ZM44.16 49.01Q40.75 48.97 38.17 47.16Q35.60 45.35 34.16 42.15Q32.72 38.96 32.72 34.80Q32.72 30.68 34.23 27.53Q35.74 24.38 38.38 22.59Q41.02 20.81 44.39 20.81Q46.79 20.81 48.60 21.71Q50.41 22.60 51.70 24.20Q52.98 25.80 53.82 27.91L55.66 27.91L56.71 34.73L60.19 48.44L55.65 48.44L52.38 34.73Q52.11 33.42 51.58 31.80Q51.05 30.18 50.18 28.71Q49.31 27.24 47.98 26.28Q46.66 25.32 44.80 25.32Q42.76 25.32 41.21 26.54Q39.67 27.75 38.81 29.90Q37.96 32.05 37.96 34.84Q37.96 37.57 38.79 39.75Q39.61 41.94 41.09 43.19Q42.56 44.44 44.53 44.44Q46.32 44.44 47.67 43.47Q49.02 42.49 49.96 40.98Q50.91 39.47 51.50 37.83Q52.10 36.19 52.38 34.87L55.31 21.16L59.84 21.16L56.71 34.87L55.66 41.78L53.98 41.78Q53.13 43.89 51.78 45.53Q50.44 47.18 48.55 48.10Q46.66 49.02 44.16 49.01ZM66.12 21.16L71.36 21.16L71.36 38.07Q71.36 40.43 72.03 41.81Q72.71 43.20 73.80 43.80Q74.89 44.41 76.12 44.41Q78.21 44.41 79.79 43.06Q81.37 41.71 82.26 39.48Q83.15 37.25 83.15 34.59Q83.11 32.51 82.71 30.18Q82.30 27.84 81.64 25.51Q80.98 23.19 80.20 21.16L85.46 21.16Q86.22 22.66 86.87 24.87Q87.52 27.08 87.91 29.61Q88.30 32.14 88.30 34.59Q88.30 37.45 87.62 40.04Q86.93 42.63 85.48 44.63Q84.02 46.63 81.74 47.78Q79.46 48.93 76.30 48.93Q71.75 48.93 68.94 46.31Q66.12 43.68 66.12 38.00L66.12 21.16Z"/></g></g></svg>